<svg width="27" height="27" viewBox="0 0 27 27" fill="none" xmlns="http://www.w3.org/2000/svg">
<g clip-path="url(#clip0_0_1634)">
<path fill-rule="evenodd" clip-rule="evenodd" d="M13.5 27C20.9558 27 27 20.9558 27 13.5C27 6.04416 20.9558 0 13.5 0C6.04416 0 0 6.04416 0 13.5C0 20.9558 6.04416 27 13.5 27Z" fill="white"/>
<path d="M16.0039 11.8438H5.42188C5.17578 11.8438 5 12.0547 5 12.2656V14.2344C5 14.4805 5.17578 14.6562 5.42188 14.6562H16.0039V16.3086C16.0039 17.0469 16.918 17.4336 17.4453 16.9062L20.4688 13.8477C20.8203 13.5312 20.8203 13.0039 20.4688 12.6875L17.4453 9.62891C16.918 9.10156 16.0039 9.48828 16.0039 10.2266V11.8438Z" fill="#155799"/>
</g>
<defs>
<clipPath id="clip0_0_1634">
<rect width="27" height="27" fill="white"/>
</clipPath>
</defs>
</svg>
