<svg width="34" height="38" viewBox="0 0 34 38" fill="none" xmlns="http://www.w3.org/2000/svg">
<path fill-rule="evenodd" clip-rule="evenodd" d="M16.9753 22.7109C14.9291 22.7109 13.2644 21.0462 13.2644 19C13.2644 16.9538 14.9291 15.2891 16.9753 15.2891C19.0216 15.2891 20.6863 16.9538 20.6863 19C20.6863 21.0462 19.0216 22.7109 16.9753 22.7109ZM19.2019 19C19.2019 17.7723 18.2031 16.7734 16.9753 16.7734C15.7476 16.7734 14.7488 17.7723 14.7488 19C14.7488 20.2277 15.7476 21.2266 16.9753 21.2266C18.2031 21.2266 19.2019 20.2277 19.2019 19Z" fill="url(#paint0_linear_0_1488)"/>
<path fill-rule="evenodd" clip-rule="evenodd" d="M0.906234 28.2775C-0.618887 25.6366 2.64251 21.8132 4.83523 19.6921C0.811085 15.9752 -0.807032 12.6899 0.390339 10.6163C2.06427 7.71667 7.83671 9.05825 11.0254 10.1061C11.3558 8.19976 11.7855 6.5003 12.2852 5.12161C11.9635 4.729 11.7799 4.23158 11.7799 3.71094C11.7799 2.48321 12.7788 1.48438 14.0065 1.48438C14.083 1.48438 14.159 1.48868 14.2345 1.4964C15.073 0.503871 15.9932 0 16.9753 0C20.3083 0 22.029 5.87738 22.7047 9.12601C25.8388 8.13074 31.5061 6.87199 33.1519 9.72273C34.9047 12.7582 30.3416 17.369 27.6681 19.6517C28.7977 20.6423 29.762 21.6131 30.5462 22.5488C31.047 22.4668 31.5692 22.5564 32.0198 22.8163C33.0833 23.4303 33.4489 24.7947 32.835 25.8579C32.7965 25.9243 32.7542 25.9874 32.7099 26.0488C33.1503 27.2709 33.1269 28.3198 32.6363 29.1706C31.0223 31.9678 25.58 30.8167 22.4854 29.8606C21.763 32.894 20.0751 38 16.9753 38C16.0178 38 15.1143 37.499 14.2897 36.5107C14.0271 36.196 14.0694 35.7279 14.3841 35.4654C14.6988 35.2027 15.1668 35.2451 15.4294 35.5598C15.9587 36.194 16.4788 36.5156 16.9753 36.5156C19.0726 36.5156 20.5951 31.4279 21.0709 29.3921C19.3525 28.7846 17.5795 28.022 15.787 27.1185C14.731 27.598 13.6842 28.0275 12.6634 28.3998C12.757 28.861 12.8572 29.3118 12.9634 29.7444C13.0613 30.1425 12.8179 30.5444 12.4198 30.6423C12.0204 30.7403 11.6194 30.4953 11.522 30.0985C11.4256 29.7061 11.3343 29.2991 11.2479 28.8842C9.98252 29.2877 8.78938 29.5878 7.68619 29.7798C7.50591 30.2552 7.16696 30.6618 6.71727 30.9212C5.65326 31.5355 4.2895 31.1677 3.67623 30.1063C3.63785 30.0402 3.60349 29.9722 3.57239 29.9029C2.29398 29.6732 1.39756 29.1282 0.906234 28.2775ZM5.95007 20.6793C2.91719 23.5902 1.44796 26.2473 2.19163 27.5351C2.44449 27.9729 2.9494 28.2207 3.47138 28.3608C3.63118 27.825 3.98935 27.3539 4.49122 27.0644C5.55403 26.4513 6.9184 26.8168 7.53293 27.8789C7.60477 28.0036 7.66237 28.1337 7.7086 28.2672C8.71902 28.0765 9.8113 27.7911 10.9708 27.4143C10.7903 26.3464 10.6443 25.2316 10.535 24.088C8.86196 22.9925 7.32371 21.8487 5.95007 20.6793ZM12.2229 12.1075C12.8636 12.3525 13.5145 12.6206 14.1719 12.91C13.4669 13.3065 12.7648 13.7205 11.9924 14.2032C12.0558 13.492 12.1327 12.792 12.2229 12.1075ZM22.0529 15.4794C21.9517 13.9605 21.7871 12.491 21.5587 11.0896C20.226 11.5829 18.862 12.1708 17.4831 12.8459C19.0245 13.6381 20.5582 14.5228 22.0529 15.4794ZM21.3804 27.9268C20.1123 27.4711 18.8126 26.9274 17.4962 26.3024C18.9622 25.5686 20.4372 24.7467 21.9523 23.8012C21.8194 25.2399 21.6282 26.6205 21.3804 27.9268ZM25.3362 19.6378C24.7997 19.2099 24.2367 18.7832 23.6509 18.3601C23.6533 18.5731 23.6549 18.7865 23.6549 19C23.6549 19.6349 23.6426 20.2738 23.6204 20.9116C24.2127 20.4928 24.7857 20.0674 25.3362 19.6378ZM22.1438 17.3127C22.1613 17.8683 22.1706 18.4338 22.1706 19C22.1706 19.9819 22.1416 20.9736 22.0874 21.9541C20.132 23.2325 18.0011 24.4367 15.8206 25.4671C14.5335 24.7964 13.2735 24.0743 11.9498 23.2334C11.8375 21.8462 11.7799 20.4243 11.7799 19C11.7799 18.027 11.8084 17.036 11.8615 16.0489C13.1223 15.2231 14.4668 14.4226 15.8444 13.6855C17.9988 14.7356 20.1481 15.9783 22.1438 17.3127ZM14.1086 26.2344C13.3885 25.8386 12.824 25.5123 12.1362 25.0958C12.2106 25.7156 12.2964 26.3237 12.3931 26.9174C12.9577 26.7072 13.5305 26.4793 14.1086 26.2344ZM10.39 22.2028C9.19239 21.3783 8.07569 20.5305 7.05318 19.6687C8.04667 18.7984 9.14318 17.937 10.3295 17.0942C10.3077 17.733 10.2956 18.3703 10.2956 19C10.2956 20.073 10.3277 21.1448 10.39 22.2028ZM4.96095 29.3629C5.16624 29.7182 5.62098 29.8402 5.9753 29.6355C6.32435 29.4342 6.45616 28.9832 6.24753 28.6214C6.04306 28.268 5.58795 28.1455 5.23289 28.3502C4.87872 28.5546 4.75759 29.012 4.96095 29.3629ZM31.5502 25.1146C31.3396 25.4781 30.8834 25.5883 30.5355 25.3871C30.1799 25.182 30.0589 24.7285 30.2638 24.3741C30.4717 24.0146 30.9285 23.9003 31.2779 24.1019C31.6323 24.3065 31.7542 24.7612 31.5502 25.1146ZM28.9787 23.6311C29.0504 23.5073 29.1337 23.3931 29.2254 23.287C28.4806 22.425 27.5695 21.5273 26.5054 20.6073C25.5714 21.3475 24.5717 22.0761 23.5243 22.7812C23.386 24.7602 23.1429 26.6465 22.8002 28.4039C27.8049 29.9687 30.6944 29.5661 31.3507 28.429C31.6033 27.9909 31.5651 27.4294 31.4252 26.9072C30.8409 27.046 30.2635 26.9444 29.7933 26.6726C28.7288 26.0586 28.3622 24.6982 28.9787 23.6311ZM31.8665 10.4648C33.0915 12.5862 28.4029 17.0927 26.5167 18.6816C25.6126 17.9491 24.6334 17.2197 23.5967 16.5054C23.5028 14.4458 23.2964 12.4626 22.9806 10.5957C28.1876 8.90692 31.1894 9.29211 31.8665 10.4648ZM15.812 12.0251C17.6661 11.0664 19.5042 10.2552 21.2893 9.60769C20.158 4.00284 18.3277 1.48438 16.9753 1.48438C16.4699 1.48438 16.0028 1.79795 15.6204 2.18003C16.0043 2.58637 16.2331 3.13188 16.2331 3.71094C16.2331 4.93866 15.2342 5.9375 14.0065 5.9375C13.8638 5.9375 13.7232 5.92251 13.5855 5.89609C13.1348 7.20404 12.7467 8.80784 12.4466 10.6048C13.5447 11.0146 14.673 11.4911 15.812 12.0251ZM14.0065 2.96875C14.4264 2.96875 14.7487 3.3129 14.7487 3.71094C14.7487 4.12018 14.4158 4.45312 14.0065 4.45312C13.6002 4.45312 13.2643 4.12211 13.2643 3.71094C13.2643 3.3017 13.5973 2.96875 14.0065 2.96875ZM10.7942 11.5928C5.45013 9.7902 2.3699 10.1561 1.67588 11.3584C0.569949 13.2736 4.31295 17.196 5.92951 18.6805C7.25891 17.5034 8.76674 16.3431 10.4238 15.2229C10.508 13.981 10.6319 12.7639 10.7942 11.5928Z" fill="url(#paint1_linear_0_1488)"/>
<path d="M13.2644 33.8438C13.6743 33.8438 14.0066 33.5115 14.0066 33.1016C14.0066 32.6917 13.6743 32.3594 13.2644 32.3594C12.8545 32.3594 12.5222 32.6917 12.5222 33.1016C12.5222 33.5115 12.8545 33.8438 13.2644 33.8438Z" fill="url(#paint2_linear_0_1488)"/>
<defs>
<linearGradient id="paint0_linear_0_1488" x1="13.2644" y1="15.2891" x2="13.2644" y2="22.7109" gradientUnits="userSpaceOnUse">
<stop stop-color="#FDC830"/>
<stop offset="1" stop-color="#F37335"/>
</linearGradient>
<linearGradient id="paint1_linear_0_1488" x1="0.00439453" y1="0" x2="0.00439453" y2="38" gradientUnits="userSpaceOnUse">
<stop stop-color="#FDC830"/>
<stop offset="1" stop-color="#F37335"/>
</linearGradient>
<linearGradient id="paint2_linear_0_1488" x1="12.5222" y1="32.3594" x2="12.5222" y2="33.8438" gradientUnits="userSpaceOnUse">
<stop stop-color="#FDC830"/>
<stop offset="1" stop-color="#F37335"/>
</linearGradient>
</defs>
</svg>
