<svg width="42" height="42" viewBox="0 0 42 42" fill="none" xmlns="http://www.w3.org/2000/svg">
<g clip-path="url(#clip0_0_1651)">
<path fill-rule="evenodd" clip-rule="evenodd" d="M21 42C32.598 42 42 32.598 42 21C42 9.40202 32.598 0 21 0C9.40202 0 0 9.40202 0 21C0 32.598 9.40202 42 21 42Z" fill="url(#paint0_linear_0_1651)"/>
<path d="M29.5625 23.8672L31.2148 16.5547C31.3203 16.0273 30.9336 15.5 30.3711 15.5H16.5898L16.2734 13.9531C16.168 13.5664 15.8164 13.25 15.4297 13.25H11.8438C11.3516 13.25 11 13.6367 11 14.0938V14.6562C11 15.1484 11.3516 15.5 11.8438 15.5H14.2695L16.7656 27.5938C16.168 27.9453 15.7812 28.5781 15.7812 29.2812C15.7812 30.3711 16.6602 31.25 17.75 31.25C18.8047 31.25 19.7188 30.3711 19.7188 29.2812C19.7188 28.7539 19.4727 28.2617 19.1211 27.875H26.4688C26.1172 28.2617 25.9062 28.7539 25.9062 29.2812C25.9062 30.3711 26.7852 31.25 27.875 31.25C28.9297 31.25 29.8438 30.3711 29.8438 29.2812C29.8438 28.5078 29.3867 27.8398 28.7188 27.5234L28.8945 26.6797C29.0352 26.1523 28.6133 25.625 28.0859 25.625H18.6641L18.418 24.5H28.7188C29.1055 24.5 29.457 24.2539 29.5625 23.8672Z" fill="white"/>
</g>
<defs>
<linearGradient id="paint0_linear_0_1651" x1="0" y1="0" x2="0" y2="42" gradientUnits="userSpaceOnUse">
<stop stop-color="#FDC830"/>
<stop offset="1" stop-color="#F37335"/>
</linearGradient>
<clipPath id="clip0_0_1651">
<rect width="42" height="42" fill="white"/>
</clipPath>
</defs>
</svg>
