<svg width="20" height="21" viewBox="0 0 20 21" fill="none" xmlns="http://www.w3.org/2000/svg">
<path d="M10 0.8125C4.64844 0.8125 0.3125 5.14844 0.3125 10.5C0.3125 15.8516 4.64844 20.1875 10 20.1875C15.3516 20.1875 19.6875 15.8516 19.6875 10.5C19.6875 5.14844 15.3516 0.8125 10 0.8125ZM10 18.3125C5.66406 18.3125 2.1875 14.8359 2.1875 10.5C2.1875 6.20312 5.66406 2.6875 10 2.6875C14.2969 2.6875 17.8125 6.20312 17.8125 10.5C17.8125 14.8359 14.2969 18.3125 10 18.3125ZM12.3828 14.25C12.6172 14.4062 12.8906 14.3672 13.0469 14.1328L13.7891 13.1562C13.9453 12.9219 13.9062 12.6484 13.6719 12.4922L11.0938 10.5781V5.03125C11.0938 4.79688 10.8594 4.5625 10.625 4.5625H9.375C9.10156 4.5625 8.90625 4.79688 8.90625 5.03125V11.4766C8.90625 11.5938 8.94531 11.75 9.0625 11.8281L12.3828 14.25Z" fill="#F37335"/>
</svg>
