<svg width="38" height="38" viewBox="0 0 38 38" fill="none" xmlns="http://www.w3.org/2000/svg">
<path fill-rule="evenodd" clip-rule="evenodd" d="M38 10.7664C38 10.997 37.8746 11.2098 37.6726 11.3206L36.7333 11.8393V18.483C37.4686 18.7452 38 19.4419 38 20.2665V25.3332C38 25.6828 37.7163 25.9666 37.3667 25.9666H34.8333C34.4837 25.9666 34.2 25.6828 34.2 25.3332V20.2665C34.2 19.4419 34.7314 18.7452 35.4667 18.483V12.5379L32.9333 13.9357V27.8666H37.3667C37.7163 27.8666 38 28.1503 38 28.4999V37.3667C38 37.7163 37.7163 38 37.3667 38H31.0333H27.8667H0.633333C0.283733 38 0 37.7163 0 37.3667V28.4999C0 28.1503 0.283733 27.8666 0.633333 27.8666H5.06667V13.9357L0.327433 11.3206C0.1254 11.2098 0 10.997 0 10.7664C0 10.5359 0.1254 10.3231 0.327433 10.2123L18.6941 0.0788507C18.8847 -0.0262836 19.1153 -0.0262836 19.3059 0.0788507L37.6726 10.2123C37.8746 10.3231 38 10.5359 38 10.7664ZM35.4667 24.6999H36.7333V20.2665C36.7333 19.9175 36.449 19.6332 36.1 19.6332C35.751 19.6332 35.4667 19.9175 35.4667 20.2665V24.6999ZM19 1.35629L36.0557 10.7664L19 20.1766L1.94433 10.7664L19 1.35629ZM27.2333 29.1333H1.26667V36.7333H27.2333V35.4666H21.5333C21.2775 35.4666 21.0463 35.3121 20.9481 35.0759C20.85 34.839 20.9044 34.5667 21.0856 34.3855L22.5378 32.9333L21.0856 31.481C20.9044 31.2999 20.85 31.0276 20.9481 30.7907C21.0463 30.5545 21.2775 30.3999 21.5333 30.3999H27.2333V29.1333ZM23.8811 32.4855L23.0622 31.6666H27.2333V34.2H23.0622L23.8811 33.3811C24.1287 33.1334 24.1287 32.7332 23.8811 32.4855ZM30.4 29.1333H28.5V36.7333H30.4V29.1333ZM31.0333 27.8666H31.6667V14.6342L19.3059 21.454C19.2109 21.5066 19.1058 21.5332 19 21.5332C18.8942 21.5332 18.7891 21.5066 18.6941 21.454L6.33333 14.6342V24.6999H10.1333V25.9666H6.33333V27.8666H27.8667H31.0333ZM31.6667 36.7333V29.1333H36.7333V36.7333H31.6667Z" fill="url(#paint0_linear_0_1515)"/>
<path d="M11.5151 24.7576H12.6667V25.9091H11.5151V24.7576Z" fill="url(#paint1_linear_0_1515)"/>
<path d="M13.8182 24.7576H14.9698V25.9091H13.8182V24.7576Z" fill="url(#paint2_linear_0_1515)"/>
<path d="M16.697 24.7576H17.8485V25.9091H16.697V24.7576Z" fill="url(#paint3_linear_0_1515)"/>
<path fill-rule="evenodd" clip-rule="evenodd" d="M19.2879 8.63635C20.7408 8.63635 21.8788 9.52168 21.8788 10.6515C21.8788 11.7813 20.7408 12.6667 19.2879 12.6667C17.8351 12.6667 16.697 11.7813 16.697 10.6515C16.697 9.52168 17.8351 8.63635 19.2879 8.63635ZM19.2879 9.97979C18.4971 9.97979 17.9925 10.3774 17.9925 10.6515C17.9925 10.9256 18.4971 11.3232 19.2879 11.3232C20.0788 11.3232 20.5834 10.9256 20.5834 10.6515C20.5834 10.3774 20.0788 9.97979 19.2879 9.97979Z" fill="url(#paint4_linear_0_1515)"/>
<defs>
<linearGradient id="paint0_linear_0_1515" x1="-9.18227" y1="-9.58343" x2="-5.04095" y2="44.1837" gradientUnits="userSpaceOnUse">
<stop stop-color="#0E6BA8"/>
<stop offset="1" stop-color="#155799"/>
</linearGradient>
<linearGradient id="paint1_linear_0_1515" x1="11.2369" y1="24.4672" x2="11.3624" y2="26.0965" gradientUnits="userSpaceOnUse">
<stop stop-color="#0E6BA8"/>
<stop offset="1" stop-color="#155799"/>
</linearGradient>
<linearGradient id="paint2_linear_0_1515" x1="13.54" y1="24.4672" x2="13.6655" y2="26.0965" gradientUnits="userSpaceOnUse">
<stop stop-color="#0E6BA8"/>
<stop offset="1" stop-color="#155799"/>
</linearGradient>
<linearGradient id="paint3_linear_0_1515" x1="16.4188" y1="24.4672" x2="16.5443" y2="26.0965" gradientUnits="userSpaceOnUse">
<stop stop-color="#0E6BA8"/>
<stop offset="1" stop-color="#155799"/>
</linearGradient>
<linearGradient id="paint4_linear_0_1515" x1="15.4449" y1="7.61993" x2="15.7873" y2="13.3358" gradientUnits="userSpaceOnUse">
<stop stop-color="#0E6BA8"/>
<stop offset="1" stop-color="#155799"/>
</linearGradient>
</defs>
</svg>
