<svg width="54" height="38" viewBox="0 0 54 38" fill="none" xmlns="http://www.w3.org/2000/svg">
<path fill-rule="evenodd" clip-rule="evenodd" d="M41.5588 4.66486C41.145 4.52511 40.696 4.74744 40.5561 5.16287C40.4162 5.57829 40.6383 6.02898 41.0522 6.16936L52.3426 9.99936L47.028 12.6C46.8074 12.4506 46.5597 12.336 46.2912 12.2656L30.3502 8.08388C29.8435 5.46734 26.6339 4.36917 24.6625 6.23129C23.9801 6.87582 23.5888 7.7847 23.5888 8.72492V8.74228C23.5944 9.84935 24.5073 10.75 25.624 10.75H28.3762C29.0869 10.75 29.7977 10.3777 30.1664 9.67699L45.0323 13.5768L28.4462 21.6934C27.4973 22.1576 26.4401 22.1271 25.5538 21.6934L1.65731 9.99936L25.9433 1.76089C26.6246 1.52967 27.3753 1.52967 28.0565 1.76089L37.5384 4.97749C37.9524 5.11777 38.4012 4.89512 38.5412 4.47948C38.681 4.06406 38.4589 3.61337 38.045 3.47299L28.5631 0.256387C27.555 -0.0854624 26.4449 -0.0854624 25.4368 0.256387L1.04187 8.53171C-0.254211 8.9717 -0.371183 10.7735 0.860659 11.3762L13.3803 17.5028C12.6916 20.7895 11.64 24.3279 10.4971 27.4686C10.0292 28.753 10.4323 30.1818 11.4999 31.0241C15.113 33.8744 19.382 36.0763 23.7574 37.4916C25.8135 38.1566 28.1062 38.1822 30.2421 37.4916C34.6189 36.0756 38.8883 33.8729 42.4994 31.0241C43.571 30.1785 43.9686 28.7491 43.5023 27.4686C42.3835 24.3976 41.3176 20.8361 40.6191 17.5031L46.5082 14.6213V26.5717C45.5017 26.6491 44.7058 27.494 44.7058 28.5238V30.8377C44.7058 31.1814 44.8545 31.4903 45.0897 31.7054L44.7958 36.1648C44.7385 37.036 45.4286 37.7764 46.2988 37.7764H48.3C49.1698 37.7764 49.8602 37.0363 49.8028 36.1648L49.5091 31.7054C49.7443 31.4903 49.893 31.1815 49.893 30.8377V28.5237C49.893 27.4939 49.097 26.649 48.0905 26.5716V14.604C48.0905 14.36 48.0522 14.1236 47.9838 13.8991L53.1392 11.3763C54.3695 10.7742 54.2562 8.97233 52.958 8.53171L41.5588 4.66486ZM28.3762 9.16194H25.624C25.3796 9.16194 25.1721 8.96609 25.171 8.73826V8.72492C25.171 8.21336 25.3754 7.73854 25.7467 7.38769C26.886 6.31154 28.7529 7.08618 28.8268 8.63398C28.8444 9.00462 28.6067 9.16194 28.3762 9.16194ZM28.697 31.5866C30.7862 31.1868 36.8517 28.785 41.1257 25.4275C40.4832 23.4555 39.7387 20.9212 39.1536 18.2202L29.1396 23.1206C27.754 23.7987 26.1938 23.7732 24.8604 23.1206L14.8458 18.22C14.2606 20.9211 13.5162 23.4554 12.8737 25.4274C17.2433 28.8585 23.3296 31.2095 25.302 31.5869C25.731 31.6691 26.0125 32.0849 25.9307 32.5157C25.8488 32.9464 25.4351 33.2287 25.0054 33.1468C22.6982 32.705 16.727 30.3116 12.3384 27.0161C12.2394 27.3004 12.112 27.6592 11.997 27.9753L11.9832 28.0136C11.7508 28.6514 11.95 29.3591 12.4777 29.7755C16.7378 33.1361 21.2269 35.0044 24.2427 35.9798C25.999 36.5482 27.9555 36.5626 29.7568 35.9798C32.7725 35.0045 37.2617 33.1361 41.5218 29.7755C42.0496 29.3589 42.2484 28.6511 42.0164 28.0137C41.8996 27.6931 41.7716 27.3328 41.661 27.0164C37.1662 30.3926 31.1787 32.7282 28.9934 33.1465C28.5655 33.2287 28.15 32.9462 28.0681 32.5153C27.9863 32.0846 28.2678 31.6688 28.697 31.5866ZM46.3798 36.1883L46.6549 32.0129H47.9436L48.2187 36.1883H46.3798ZM48.3108 30.4248V28.5236C48.3108 28.3221 48.1411 28.152 47.9404 28.1519H46.6582C46.4574 28.1519 46.2879 28.3221 46.2879 28.5236V30.4248H48.3108Z" fill="url(#paint0_linear_10_1878)"/>
<defs>
<linearGradient id="paint0_linear_10_1878" x1="0" y1="0" x2="0" y2="38" gradientUnits="userSpaceOnUse">
<stop stop-color="#FDC830"/>
<stop offset="1" stop-color="#F37335"/>
</linearGradient>
</defs>
</svg>
