<svg width="20" height="21" viewBox="0 0 20 21" fill="none" xmlns="http://www.w3.org/2000/svg">
<path d="M19.2578 1.47656L15.1953 0.539062C14.7656 0.421875 14.2969 0.65625 14.1016 1.08594L12.2266 5.46094C12.0703 5.85156 12.1875 6.28125 12.5 6.55469L14.8828 8.50781C13.4766 11.4766 11.0156 13.9766 7.96875 15.4219L6.01562 13.0391C5.74219 12.7266 5.3125 12.6094 4.92188 12.7656L0.546875 14.6406C0.117188 14.8359 -0.078125 15.3047 0 15.7344L0.9375 19.7969C1.05469 20.2266 1.40625 20.5 1.875 20.5C11.875 20.5 20 12.4141 20 2.375C20 1.94531 19.6875 1.59375 19.2578 1.47656Z" fill="#F37335"/>
</svg>
