<svg width="38" height="38" viewBox="0 0 38 38" fill="none" xmlns="http://www.w3.org/2000/svg">
<path fill-rule="evenodd" clip-rule="evenodd" d="M12.4482 22.2759H25.5517C27.3599 22.278 28.8254 23.7435 28.8275 25.5517V30.7931C28.8254 32.6014 27.3599 34.0669 25.5517 34.069H12.4482C10.6399 34.0669 9.17449 32.6014 9.17236 30.7931V25.5517C9.17449 23.7435 10.6399 22.278 12.4482 22.2759ZM25.5517 32.7586C26.6372 32.7586 27.5172 31.8787 27.5172 30.7931V27.5173H15.7241V30.7931C15.7241 31.1549 15.4307 31.4483 15.0689 31.4483H12.4482C12.0864 31.4483 11.7931 31.1549 11.7931 30.7931V27.5173H10.4827V30.7931C10.4827 31.8787 11.3627 32.7586 12.4482 32.7586H25.5517ZM13.1034 30.1379V27.5173H14.4137V30.1379H13.1034ZM10.4827 26.2069H27.5172V25.5517C27.5172 24.4662 26.6372 23.5862 25.5517 23.5862H12.4482C11.3627 23.5862 10.4827 24.4662 10.4827 25.5517V26.2069Z" fill="url(#paint0_linear_0_1453)"/>
<path fill-rule="evenodd" clip-rule="evenodd" d="M33.4138 19.6552H32.3904L32.3655 18.3284C32.3458 17.5559 32.2581 16.7866 32.1034 16.0294V2.62069C32.1034 2.25887 31.8101 1.96552 31.4483 1.96552H27.5172C27.5107 1.96552 27.5054 1.96552 27.4982 1.96945C27.3381 1.97305 27.185 2.03644 27.0691 2.147C27.0577 2.15797 27.0487 2.1701 27.0397 2.18229C27.0336 2.19049 27.0275 2.19871 27.0206 2.20662C26.9942 2.23422 26.97 2.26403 26.9486 2.29572L24.5552 6.48621C24.5147 6.46724 24.4747 6.44739 24.4346 6.42754C24.3708 6.39595 24.3069 6.36433 24.2414 6.33617V5.24138C24.2414 2.34666 21.8947 0 19 0C16.1053 0 13.7586 2.34666 13.7586 5.24138V6.33355C13.693 6.36171 13.6292 6.39333 13.5654 6.42491C13.5253 6.44477 13.4853 6.46462 13.4448 6.48359L11.0514 2.2931C11.0304 2.26206 11.0067 2.23291 10.9807 2.20597C10.965 2.18328 10.9482 2.16141 10.9302 2.14045C10.8142 2.03013 10.6612 1.96707 10.5011 1.96355C10.495 1.96388 10.4888 1.96453 10.4828 1.96552H6.55172C6.18991 1.96552 5.89655 2.25887 5.89655 2.62069V16.0294H5.90048C5.74586 16.7866 5.65815 17.5559 5.63841 18.3284L5.60959 19.6552H4.58621C2.05454 19.658 0.00286638 21.7097 0 24.2414V34.069C0 34.4308 0.293353 34.7241 0.655172 34.7241H5.30231C5.29723 36.5282 6.75565 37.9949 8.55983 38H8.57228H29.4277C31.2319 38.0018 32.6959 36.5408 32.6977 34.7366V34.7241H37.3448C37.7066 34.7241 38 34.4308 38 34.069V24.2414C37.9971 21.7097 35.9455 19.658 33.4138 19.6552ZM5.32328 33.4138H1.31034V26.2069H5.47331L5.32328 33.4138ZM1.31034 24.8966H5.50345L5.58272 20.9655H4.58621C2.77793 20.9676 1.31247 22.4331 1.31034 24.2414V24.8966ZM28.1724 3.27586H30.7931V12.3788C30.1098 11.0985 29.2249 9.93635 28.1724 8.93721V3.27586ZM26.8621 7.84897V5.08807L25.7162 7.0929C26.1106 7.32556 26.493 7.57789 26.8621 7.84897ZM15.069 5.24138C15.069 3.0703 16.8289 1.31034 19 1.31034C21.1711 1.31034 22.931 3.0703 22.931 5.24138V5.84217C20.3715 5.04114 17.6285 5.04114 15.069 5.84217V5.24138ZM12.2838 7.0929L11.1379 5.08807V7.84897C11.507 7.57789 11.8894 7.32556 12.2838 7.0929ZM7.2069 3.27586H9.82759V8.93721C8.77505 9.93635 7.89016 11.0985 7.2069 12.3788V3.27586ZM29.4244 36.6897C29.4383 36.6897 29.4522 36.6896 29.4661 36.6892C30.5514 36.6664 31.4127 35.7682 31.39 34.6829L31.0499 18.356C30.9152 11.8951 25.7098 6.68964 19.2488 6.55484C12.5923 6.41594 7.08364 11.6995 6.94483 18.356L6.60676 34.6835C6.60651 34.6972 6.60635 34.7109 6.60635 34.7245C6.60659 35.8101 7.48674 36.6899 8.57228 36.6897H29.4244ZM36.6897 33.4138H32.6774L32.5267 26.2069H36.6897V33.4138ZM32.4966 24.8966H36.6897V24.2414C36.6875 22.4331 35.2221 20.9676 33.4138 20.9655H32.4147L32.4966 24.8966Z" fill="url(#paint1_linear_0_1453)"/>
<rect x="17.0344" y="13.0798" width="1.31034" height="2.62069" fill="url(#paint2_linear_0_1453)"/>
<rect x="19.6552" y="13.0798" width="1.31034" height="2.62069" fill="url(#paint3_linear_0_1453)"/>
<path fill-rule="evenodd" clip-rule="evenodd" d="M20.6216 9.84131L23.5462 12.7667C24.4415 13.6621 24.4415 15.1137 23.5462 16.0091L20.6216 18.9345C19.7253 19.8283 18.2747 19.8283 17.3784 18.9345L14.4538 16.0117C13.5585 15.1163 13.5585 13.6647 14.4538 12.7693L17.3784 9.84131C18.286 8.97526 19.714 8.97526 20.6216 9.84131ZM19.6951 18.0107L22.6198 15.0827C23.0035 14.6989 23.0035 14.0768 22.6198 13.6931L19.6951 10.7677C19.3114 10.384 18.6893 10.384 18.3055 10.7677L15.3802 13.6931L15.3778 13.6954C14.9946 14.08 14.9957 14.7022 15.3802 15.0853L18.3049 18.0107L18.3053 18.0111C18.6892 18.3948 19.3115 18.3946 19.6951 18.0107Z" fill="url(#paint4_linear_0_1453)"/>
<rect x="2.62073" y="4.58618" width="1.31034" height="8.51724" fill="url(#paint5_linear_0_1453)"/>
<rect x="2.62073" y="14.4138" width="1.31034" height="1.31034" fill="url(#paint6_linear_0_1453)"/>
<rect x="33.4138" y="11.1379" width="1.31034" height="5.24138" fill="url(#paint7_linear_0_1453)"/>
<rect x="33.4138" y="8.51721" width="1.31034" height="1.31034" fill="url(#paint8_linear_0_1453)"/>
<defs>
<linearGradient id="paint0_linear_0_1453" x1="4.42292" y1="19.3017" x2="5.19698" y2="36.0513" gradientUnits="userSpaceOnUse">
<stop stop-color="#0E6BA8"/>
<stop offset="1" stop-color="#155799"/>
</linearGradient>
<linearGradient id="paint1_linear_0_1453" x1="-9.18227" y1="-9.58343" x2="-5.04095" y2="44.1837" gradientUnits="userSpaceOnUse">
<stop stop-color="#0E6BA8"/>
<stop offset="1" stop-color="#155799"/>
</linearGradient>
<linearGradient id="paint2_linear_0_1453" x1="16.7178" y1="12.4189" x2="17.2791" y2="16.0625" gradientUnits="userSpaceOnUse">
<stop stop-color="#0E6BA8"/>
<stop offset="1" stop-color="#155799"/>
</linearGradient>
<linearGradient id="paint3_linear_0_1453" x1="19.3385" y1="12.4189" x2="19.8998" y2="16.0625" gradientUnits="userSpaceOnUse">
<stop stop-color="#0E6BA8"/>
<stop offset="1" stop-color="#155799"/>
</linearGradient>
<linearGradient id="paint4_linear_0_1453" x1="11.2608" y1="6.56565" x2="12.3932" y2="21.2997" gradientUnits="userSpaceOnUse">
<stop stop-color="#0E6BA8"/>
<stop offset="1" stop-color="#155799"/>
</linearGradient>
<linearGradient id="paint5_linear_0_1453" x1="2.3041" y1="2.43817" x2="7.15698" y2="12.1313" gradientUnits="userSpaceOnUse">
<stop stop-color="#0E6BA8"/>
<stop offset="1" stop-color="#155799"/>
</linearGradient>
<linearGradient id="paint6_linear_0_1453" x1="2.3041" y1="14.0834" x2="2.4469" y2="15.9374" gradientUnits="userSpaceOnUse">
<stop stop-color="#0E6BA8"/>
<stop offset="1" stop-color="#155799"/>
</linearGradient>
<linearGradient id="paint7_linear_0_1453" x1="33.0972" y1="9.81609" x2="35.1964" y2="16.6295" gradientUnits="userSpaceOnUse">
<stop stop-color="#0E6BA8"/>
<stop offset="1" stop-color="#155799"/>
</linearGradient>
<linearGradient id="paint8_linear_0_1453" x1="33.0972" y1="8.18675" x2="33.24" y2="10.0408" gradientUnits="userSpaceOnUse">
<stop stop-color="#0E6BA8"/>
<stop offset="1" stop-color="#155799"/>
</linearGradient>
</defs>
</svg>
