<svg width="28" height="28" viewBox="0 0 28 28" fill="none" xmlns="http://www.w3.org/2000/svg">
<g clip-path="url(#clip0_0_2276)">
<path fill-rule="evenodd" clip-rule="evenodd" d="M14 28C21.732 28 28 21.732 28 14C28 6.26801 21.732 0 14 0C6.26801 0 0 6.26801 0 14C0 21.732 6.26801 28 14 28Z" fill="url(#paint0_linear_0_2276)"/>
<path d="M17.6289 15.625L18.0117 13.1094H15.5781V11.4688C15.5781 10.7578 15.9062 10.1016 17 10.1016H18.1211V7.94141C18.1211 7.94141 17.1094 7.75 16.1523 7.75C14.1562 7.75 12.8438 8.98047 12.8438 11.168V13.1094H10.6016V15.625H12.8438V21.75H15.5781V15.625H17.6289Z" fill="white"/>
</g>
<defs>
<linearGradient id="paint0_linear_0_2276" x1="-6.76588" y1="-7.06147" x2="-3.71439" y2="32.5564" gradientUnits="userSpaceOnUse">
<stop stop-color="#0E6BA8"/>
<stop offset="1" stop-color="#155799"/>
</linearGradient>
<clipPath id="clip0_0_2276">
<rect width="28" height="28" fill="white"/>
</clipPath>
</defs>
</svg>
