<svg width="28" height="28" viewBox="0 0 28 28" fill="none" xmlns="http://www.w3.org/2000/svg">
<g clip-path="url(#clip0_0_2282)">
<path fill-rule="evenodd" clip-rule="evenodd" d="M14 28C21.732 28 28 21.732 28 14C28 6.26801 21.732 0 14 0C6.26801 0 0 6.26801 0 14C0 21.732 6.26801 28 14 28Z" fill="url(#paint0_linear_0_2282)"/>
<path d="M14.125 11.6055C12.375 11.6055 10.9805 13.0273 10.9805 14.75C10.9805 16.5 12.375 17.8945 14.125 17.8945C15.8477 17.8945 17.2695 16.5 17.2695 14.75C17.2695 13.0273 15.8477 11.6055 14.125 11.6055ZM14.125 16.8008C13.0039 16.8008 12.0742 15.8984 12.0742 14.75C12.0742 13.6289 12.9766 12.7266 14.125 12.7266C15.2461 12.7266 16.1484 13.6289 16.1484 14.75C16.1484 15.8984 15.2461 16.8008 14.125 16.8008ZM18.1172 11.4961C18.1172 11.0859 17.7891 10.7578 17.3789 10.7578C16.9688 10.7578 16.6406 11.0859 16.6406 11.4961C16.6406 11.9062 16.9688 12.2344 17.3789 12.2344C17.7891 12.2344 18.1172 11.9062 18.1172 11.4961ZM20.1953 12.2344C20.1406 11.25 19.9219 10.375 19.2109 9.66406C18.5 8.95312 17.625 8.73438 16.6406 8.67969C15.6289 8.625 12.5938 8.625 11.582 8.67969C10.5977 8.73438 9.75 8.95312 9.01172 9.66406C8.30078 10.375 8.08203 11.25 8.02734 12.2344C7.97266 13.2461 7.97266 16.2812 8.02734 17.293C8.08203 18.2773 8.30078 19.125 9.01172 19.8633C9.75 20.5742 10.5977 20.793 11.582 20.8477C12.5938 20.9023 15.6289 20.9023 16.6406 20.8477C17.625 20.793 18.5 20.5742 19.2109 19.8633C19.9219 19.125 20.1406 18.2773 20.1953 17.293C20.25 16.2812 20.25 13.2461 20.1953 12.2344ZM18.8828 18.3594C18.6914 18.9062 18.2539 19.3164 17.7344 19.5352C16.9141 19.8633 15 19.7812 14.125 19.7812C13.2227 19.7812 11.3086 19.8633 10.5156 19.5352C9.96875 19.3164 9.55859 18.9062 9.33984 18.3594C9.01172 17.5664 9.09375 15.6523 9.09375 14.75C9.09375 13.875 9.01172 11.9609 9.33984 11.1406C9.55859 10.6211 9.96875 10.2109 10.5156 9.99219C11.3086 9.66406 13.2227 9.74609 14.125 9.74609C15 9.74609 16.9141 9.66406 17.7344 9.99219C18.2539 10.1836 18.6641 10.6211 18.8828 11.1406C19.2109 11.9609 19.1289 13.875 19.1289 14.75C19.1289 15.6523 19.2109 17.5664 18.8828 18.3594Z" fill="white"/>
</g>
<defs>
<linearGradient id="paint0_linear_0_2282" x1="-6.76588" y1="-7.06147" x2="-3.71439" y2="32.5564" gradientUnits="userSpaceOnUse">
<stop stop-color="#0E6BA8"/>
<stop offset="1" stop-color="#155799"/>
</linearGradient>
<clipPath id="clip0_0_2282">
<rect width="28" height="28" fill="white"/>
</clipPath>
</defs>
</svg>
