<svg width="28" height="28" viewBox="0 0 28 28" fill="none" xmlns="http://www.w3.org/2000/svg">
<g clip-path="url(#clip0_0_2279)">
<path fill-rule="evenodd" clip-rule="evenodd" d="M14 28C21.732 28 28 21.732 28 14C28 6.26801 21.732 0 14 0C6.26801 0 0 6.26801 0 14C0 21.732 6.26801 28 14 28Z" fill="url(#paint0_linear_0_2279)"/>
<path d="M10.7344 20V11.8242H8.19141V20H10.7344ZM9.44922 10.7305C10.2695 10.7305 10.9258 10.0469 10.9258 9.22656C10.9258 8.43359 10.2695 7.77734 9.44922 7.77734C8.65625 7.77734 8 8.43359 8 9.22656C8 10.0469 8.65625 10.7305 9.44922 10.7305ZM20.2227 20H20.25V15.5156C20.25 13.3281 19.7578 11.6328 17.1875 11.6328C15.957 11.6328 15.1367 12.3164 14.7812 12.9453H14.7539V11.8242H12.3203V20H14.8633V15.9531C14.8633 14.8867 15.0547 13.875 16.3672 13.875C17.6797 13.875 17.707 15.0781 17.707 16.0352V20H20.2227Z" fill="white"/>
</g>
<defs>
<linearGradient id="paint0_linear_0_2279" x1="-6.76588" y1="-7.06147" x2="-3.71439" y2="32.5564" gradientUnits="userSpaceOnUse">
<stop stop-color="#0E6BA8"/>
<stop offset="1" stop-color="#155799"/>
</linearGradient>
<clipPath id="clip0_0_2279">
<rect width="28" height="28" fill="white"/>
</clipPath>
</defs>
</svg>
