<svg width="162" height="55" viewBox="0 0 162 55" fill="none" xmlns="http://www.w3.org/2000/svg">
<g clip-path="url(#clip0_0_2259)">
<path d="M75.44 22.168C74.272 22.168 73.216 21.968 72.272 21.568C71.344 21.168 70.608 20.592 70.064 19.84C69.52 19.088 69.24 18.2 69.224 17.176H72.824C72.872 17.864 73.112 18.408 73.544 18.808C73.992 19.208 74.6 19.408 75.368 19.408C76.152 19.408 76.768 19.224 77.216 18.856C77.664 18.472 77.888 17.976 77.888 17.368C77.888 16.872 77.736 16.464 77.432 16.144C77.128 15.824 76.744 15.576 76.28 15.4C75.832 15.208 75.208 15 74.408 14.776C73.32 14.456 72.432 14.144 71.744 13.84C71.072 13.52 70.488 13.048 69.992 12.424C69.512 11.784 69.272 10.936 69.272 9.88C69.272 8.888 69.52 8.024 70.016 7.288C70.512 6.552 71.208 5.992 72.104 5.608C73 5.208 74.024 5.008 75.176 5.008C76.904 5.008 78.304 5.432 79.376 6.28C80.464 7.112 81.064 8.28 81.176 9.784H77.48C77.448 9.208 77.2 8.736 76.736 8.368C76.288 7.984 75.688 7.792 74.936 7.792C74.28 7.792 73.752 7.96 73.352 8.296C72.968 8.632 72.776 9.12 72.776 9.76C72.776 10.208 72.92 10.584 73.208 10.888C73.512 11.176 73.88 11.416 74.312 11.608C74.76 11.784 75.384 11.992 76.184 12.232C77.272 12.552 78.16 12.872 78.848 13.192C79.536 13.512 80.128 13.992 80.624 14.632C81.12 15.272 81.368 16.112 81.368 17.152C81.368 18.048 81.136 18.88 80.672 19.648C80.208 20.416 79.528 21.032 78.632 21.496C77.736 21.944 76.672 22.168 75.44 22.168ZM91.769 8.512C92.777 8.512 93.673 8.736 94.457 9.184C95.241 9.616 95.849 10.264 96.281 11.128C96.729 11.976 96.953 13 96.953 14.2V22H93.593V14.656C93.593 13.6 93.329 12.792 92.801 12.232C92.273 11.656 91.553 11.368 90.641 11.368C89.713 11.368 88.977 11.656 88.433 12.232C87.905 12.792 87.641 13.6 87.641 14.656V22H84.281V4.24H87.641V10.36C88.073 9.784 88.649 9.336 89.369 9.016C90.089 8.68 90.889 8.512 91.769 8.512ZM112.508 15.064C112.508 15.544 112.476 15.976 112.412 16.36H102.692C102.772 17.32 103.108 18.072 103.7 18.616C104.292 19.16 105.02 19.432 105.884 19.432C107.132 19.432 108.02 18.896 108.548 17.824H112.172C111.788 19.104 111.052 20.16 109.964 20.992C108.876 21.808 107.54 22.216 105.956 22.216C104.676 22.216 103.524 21.936 102.5 21.376C101.492 20.8 100.7 19.992 100.124 18.952C99.5642 17.912 99.2842 16.712 99.2842 15.352C99.2842 13.976 99.5642 12.768 100.124 11.728C100.684 10.688 101.468 9.888 102.476 9.328C103.484 8.768 104.644 8.488 105.956 8.488C107.22 8.488 108.348 8.76 109.34 9.304C110.348 9.848 111.124 10.624 111.668 11.632C112.228 12.624 112.508 13.768 112.508 15.064ZM109.028 14.104C109.012 13.24 108.7 12.552 108.092 12.04C107.484 11.512 106.74 11.248 105.86 11.248C105.028 11.248 104.324 11.504 103.748 12.016C103.188 12.512 102.844 13.208 102.716 14.104H109.028ZM118.321 4.24V22H114.961V4.24H118.321ZM125 4.24V22H121.64V4.24H125ZM141.04 8.704L132.808 28.288H129.232L132.112 21.664L126.784 8.704H130.552L133.984 17.992L137.464 8.704H141.04Z" fill="#2B2B2B"/>
<path d="M75.0068 45.3408C75.0068 45.9333 74.8587 46.4391 74.5625 46.8584C74.2708 47.2731 73.8607 47.5898 73.332 47.8086C72.8034 48.0273 72.1813 48.1367 71.4658 48.1367C71.0876 48.1367 70.7298 48.1185 70.3926 48.082C70.0553 48.0456 69.7454 47.9932 69.4629 47.9248C69.1803 47.8564 68.932 47.7721 68.7178 47.6719V46.5576C69.0596 46.6989 69.4766 46.8311 69.9688 46.9541C70.4609 47.0726 70.9759 47.1318 71.5137 47.1318C72.015 47.1318 72.4388 47.0658 72.7852 46.9336C73.1315 46.7969 73.3936 46.6032 73.5713 46.3525C73.7536 46.0973 73.8447 45.792 73.8447 45.4365C73.8447 45.0947 73.7695 44.8099 73.6191 44.582C73.4688 44.3496 73.2181 44.14 72.8672 43.9531C72.5208 43.7617 72.0469 43.5589 71.4453 43.3447C71.0215 43.1943 70.6478 43.0303 70.3242 42.8525C70.0007 42.6702 69.7295 42.4652 69.5107 42.2373C69.292 42.0094 69.1257 41.7451 69.0117 41.4443C68.9023 41.1436 68.8477 40.7995 68.8477 40.4121C68.8477 39.8789 68.9821 39.4232 69.251 39.0449C69.5244 38.6621 69.9004 38.3704 70.3789 38.1699C70.862 37.9648 71.4157 37.8623 72.04 37.8623C72.5732 37.8623 73.0654 37.9124 73.5166 38.0127C73.9723 38.113 74.3893 38.2474 74.7676 38.416L74.4053 39.4141C74.0452 39.2637 73.6624 39.1383 73.2568 39.0381C72.8558 38.9378 72.4411 38.8877 72.0127 38.8877C71.5843 38.8877 71.222 38.9515 70.9258 39.0791C70.6341 39.2021 70.4108 39.3776 70.2559 39.6055C70.1009 39.8333 70.0234 40.1045 70.0234 40.4189C70.0234 40.7699 70.0964 41.0615 70.2422 41.2939C70.3926 41.5264 70.6296 41.7337 70.9531 41.916C71.2812 42.0938 71.7142 42.2806 72.252 42.4766C72.8398 42.6908 73.3389 42.9186 73.749 43.1602C74.1592 43.3971 74.4714 43.6888 74.6855 44.0352C74.8997 44.377 75.0068 44.8122 75.0068 45.3408ZM79.8809 48.1367C79.2064 48.1367 78.6117 47.9977 78.0967 47.7197C77.5817 47.4417 77.1807 47.0179 76.8936 46.4482C76.6064 45.8786 76.4629 45.1608 76.4629 44.2949C76.4629 43.388 76.6133 42.6475 76.9141 42.0732C77.2194 41.4945 77.6387 41.0661 78.1719 40.7881C78.7051 40.5101 79.3112 40.3711 79.9902 40.3711C80.3639 40.3711 80.724 40.4098 81.0703 40.4873C81.4212 40.5602 81.7083 40.6536 81.9316 40.7676L81.5898 41.7178C81.362 41.6266 81.0977 41.5446 80.7969 41.4717C80.5007 41.3988 80.2227 41.3623 79.9629 41.3623C79.4434 41.3623 79.0104 41.474 78.6641 41.6973C78.3223 41.9206 78.0648 42.2487 77.8916 42.6816C77.723 43.1146 77.6387 43.6478 77.6387 44.2812C77.6387 44.8874 77.7207 45.4046 77.8848 45.833C78.0534 46.2614 78.3018 46.5895 78.6299 46.8174C78.9626 47.0407 79.3773 47.1523 79.874 47.1523C80.2705 47.1523 80.6283 47.1113 80.9473 47.0293C81.2663 46.9427 81.5557 46.8424 81.8154 46.7285V47.7402C81.5648 47.8678 81.2845 47.9658 80.9746 48.0342C80.6693 48.1025 80.3047 48.1367 79.8809 48.1367ZM84.7275 37.3633V40.542C84.7275 40.7243 84.723 40.9089 84.7139 41.0957C84.7048 41.278 84.6888 41.4466 84.666 41.6016H84.7412C84.8962 41.3372 85.0921 41.1162 85.3291 40.9385C85.5706 40.7562 85.8441 40.6195 86.1494 40.5283C86.4548 40.4326 86.7783 40.3848 87.1201 40.3848C87.7217 40.3848 88.223 40.4805 88.624 40.6719C89.0296 40.8633 89.3327 41.1595 89.5332 41.5605C89.7383 41.9616 89.8408 42.4811 89.8408 43.1191V48H88.7197V43.1943C88.7197 42.57 88.5762 42.1029 88.2891 41.793C88.0065 41.4831 87.5713 41.3281 86.9834 41.3281C86.4274 41.3281 85.9831 41.4352 85.6504 41.6494C85.3223 41.859 85.0853 42.1689 84.9395 42.5791C84.7982 42.9893 84.7275 43.4906 84.7275 44.083V48H83.5928V37.3633H84.7275ZM98.6387 44.2402C98.6387 44.8555 98.5589 45.4046 98.3994 45.8877C98.2399 46.3708 98.0098 46.7786 97.709 47.1113C97.4082 47.444 97.0436 47.6992 96.6152 47.877C96.1914 48.0501 95.7106 48.1367 95.1729 48.1367C94.6715 48.1367 94.2113 48.0501 93.792 47.877C93.3773 47.6992 93.0173 47.444 92.7119 47.1113C92.4111 46.7786 92.1764 46.3708 92.0078 45.8877C91.8438 45.4046 91.7617 44.8555 91.7617 44.2402C91.7617 43.4199 91.9007 42.7227 92.1787 42.1484C92.4567 41.5697 92.8532 41.1299 93.3682 40.8291C93.8877 40.5238 94.5052 40.3711 95.2207 40.3711C95.9043 40.3711 96.5013 40.5238 97.0117 40.8291C97.5267 41.1344 97.9255 41.5765 98.208 42.1553C98.4951 42.7295 98.6387 43.4245 98.6387 44.2402ZM92.9375 44.2402C92.9375 44.8418 93.0173 45.3636 93.1768 45.8057C93.3363 46.2477 93.5824 46.5895 93.915 46.8311C94.2477 47.0726 94.6761 47.1934 95.2002 47.1934C95.7197 47.1934 96.1458 47.0726 96.4785 46.8311C96.8158 46.5895 97.0641 46.2477 97.2236 45.8057C97.3831 45.3636 97.4629 44.8418 97.4629 44.2402C97.4629 43.6432 97.3831 43.1283 97.2236 42.6953C97.0641 42.2578 96.818 41.9206 96.4854 41.6836C96.1527 41.4466 95.722 41.3281 95.1934 41.3281C94.4141 41.3281 93.8421 41.5856 93.4775 42.1006C93.1175 42.6156 92.9375 43.3288 92.9375 44.2402ZM107.061 44.2402C107.061 44.8555 106.981 45.4046 106.821 45.8877C106.662 46.3708 106.432 46.7786 106.131 47.1113C105.83 47.444 105.465 47.6992 105.037 47.877C104.613 48.0501 104.132 48.1367 103.595 48.1367C103.093 48.1367 102.633 48.0501 102.214 47.877C101.799 47.6992 101.439 47.444 101.134 47.1113C100.833 46.7786 100.598 46.3708 100.43 45.8877C100.266 45.4046 100.184 44.8555 100.184 44.2402C100.184 43.4199 100.323 42.7227 100.601 42.1484C100.879 41.5697 101.275 41.1299 101.79 40.8291C102.31 40.5238 102.927 40.3711 103.643 40.3711C104.326 40.3711 104.923 40.5238 105.434 40.8291C105.949 41.1344 106.347 41.5765 106.63 42.1553C106.917 42.7295 107.061 43.4245 107.061 44.2402ZM101.359 44.2402C101.359 44.8418 101.439 45.3636 101.599 45.8057C101.758 46.2477 102.004 46.5895 102.337 46.8311C102.67 47.0726 103.098 47.1934 103.622 47.1934C104.142 47.1934 104.568 47.0726 104.9 46.8311C105.238 46.5895 105.486 46.2477 105.646 45.8057C105.805 45.3636 105.885 44.8418 105.885 44.2402C105.885 43.6432 105.805 43.1283 105.646 42.6953C105.486 42.2578 105.24 41.9206 104.907 41.6836C104.575 41.4466 104.144 41.3281 103.615 41.3281C102.836 41.3281 102.264 41.5856 101.899 42.1006C101.539 42.6156 101.359 43.3288 101.359 44.2402ZM110.164 48H109.022V37.3633H110.164V48ZM120.644 38.8877C120.092 38.8877 119.595 38.9834 119.153 39.1748C118.716 39.3617 118.342 39.6351 118.032 39.9951C117.727 40.3506 117.492 40.7812 117.328 41.2871C117.164 41.793 117.082 42.3626 117.082 42.9961C117.082 43.8346 117.212 44.5638 117.472 45.1836C117.736 45.7988 118.128 46.2751 118.647 46.6123C119.172 46.9495 119.826 47.1182 120.609 47.1182C121.056 47.1182 121.475 47.0817 121.867 47.0088C122.264 46.9313 122.649 46.8356 123.022 46.7217V47.7334C122.658 47.8701 122.275 47.9704 121.874 48.0342C121.473 48.1025 120.997 48.1367 120.445 48.1367C119.429 48.1367 118.579 47.9271 117.896 47.5078C117.216 47.084 116.706 46.487 116.364 45.7168C116.027 44.9466 115.858 44.0374 115.858 42.9893C115.858 42.2327 115.963 41.5423 116.173 40.918C116.387 40.2891 116.697 39.7467 117.103 39.291C117.513 38.8353 118.014 38.4844 118.606 38.2383C119.203 37.9876 119.887 37.8623 120.657 37.8623C121.163 37.8623 121.651 37.9124 122.12 38.0127C122.59 38.113 123.013 38.2565 123.392 38.4434L122.927 39.4277C122.608 39.2819 122.257 39.1566 121.874 39.0518C121.496 38.9424 121.086 38.8877 120.644 38.8877ZM127.903 40.3711C128.541 40.3711 129.088 40.5124 129.544 40.7949C130 41.0775 130.348 41.474 130.59 41.9844C130.831 42.4902 130.952 43.0827 130.952 43.7617V44.4658H125.777C125.791 45.3454 126.01 46.0153 126.434 46.4756C126.857 46.9359 127.454 47.166 128.225 47.166C128.699 47.166 129.118 47.1227 129.482 47.0361C129.847 46.9495 130.225 46.8219 130.617 46.6533V47.6514C130.239 47.82 129.863 47.943 129.489 48.0205C129.12 48.098 128.683 48.1367 128.177 48.1367C127.457 48.1367 126.828 47.9909 126.29 47.6992C125.757 47.403 125.342 46.9701 125.046 46.4004C124.75 45.8307 124.602 45.1335 124.602 44.3086C124.602 43.502 124.736 42.8047 125.005 42.2168C125.278 41.6243 125.661 41.1686 126.153 40.8496C126.65 40.5306 127.233 40.3711 127.903 40.3711ZM127.89 41.3008C127.284 41.3008 126.8 41.499 126.44 41.8955C126.08 42.292 125.866 42.8457 125.798 43.5566H129.763C129.758 43.11 129.688 42.7181 129.551 42.3809C129.419 42.0391 129.216 41.7747 128.942 41.5879C128.669 41.3965 128.318 41.3008 127.89 41.3008ZM136.428 40.3711C137.316 40.3711 137.989 40.5898 138.444 41.0273C138.9 41.4603 139.128 42.1576 139.128 43.1191V48H138.007V43.1943C138.007 42.57 137.863 42.1029 137.576 41.793C137.294 41.4831 136.858 41.3281 136.271 41.3281C135.441 41.3281 134.858 41.5628 134.521 42.0322C134.183 42.5016 134.015 43.1829 134.015 44.0762V48H132.88V40.5078H133.796L133.967 41.5879H134.028C134.188 41.3236 134.391 41.1025 134.637 40.9248C134.883 40.7425 135.159 40.6058 135.464 40.5146C135.769 40.4189 136.09 40.3711 136.428 40.3711ZM143.886 47.207C144.073 47.207 144.264 47.1911 144.46 47.1592C144.656 47.1273 144.815 47.0885 144.938 47.043V47.9248C144.806 47.984 144.622 48.0342 144.385 48.0752C144.152 48.1162 143.924 48.1367 143.701 48.1367C143.305 48.1367 142.945 48.0684 142.621 47.9316C142.298 47.7904 142.038 47.5534 141.842 47.2207C141.65 46.888 141.555 46.4277 141.555 45.8398V41.3965H140.488V40.8428L141.562 40.3984L142.013 38.7715H142.696V40.5078H144.891V41.3965H142.696V45.8057C142.696 46.2751 142.803 46.626 143.018 46.8584C143.236 47.0908 143.526 47.207 143.886 47.207ZM149.341 40.3711C149.979 40.3711 150.526 40.5124 150.981 40.7949C151.437 41.0775 151.786 41.474 152.027 41.9844C152.269 42.4902 152.39 43.0827 152.39 43.7617V44.4658H147.215C147.229 45.3454 147.447 46.0153 147.871 46.4756C148.295 46.9359 148.892 47.166 149.662 47.166C150.136 47.166 150.555 47.1227 150.92 47.0361C151.285 46.9495 151.663 46.8219 152.055 46.6533V47.6514C151.676 47.82 151.3 47.943 150.927 48.0205C150.558 48.098 150.12 48.1367 149.614 48.1367C148.894 48.1367 148.265 47.9909 147.728 47.6992C147.194 47.403 146.78 46.9701 146.483 46.4004C146.187 45.8307 146.039 45.1335 146.039 44.3086C146.039 43.502 146.174 42.8047 146.442 42.2168C146.716 41.6243 147.099 41.1686 147.591 40.8496C148.088 40.5306 148.671 40.3711 149.341 40.3711ZM149.327 41.3008C148.721 41.3008 148.238 41.499 147.878 41.8955C147.518 42.292 147.304 42.8457 147.235 43.5566H151.2C151.196 43.11 151.125 42.7181 150.988 42.3809C150.856 42.0391 150.653 41.7747 150.38 41.5879C150.106 41.3965 149.756 41.3008 149.327 41.3008ZM157.722 40.3711C157.872 40.3711 158.029 40.3802 158.193 40.3984C158.357 40.4121 158.503 40.4326 158.631 40.46L158.487 41.5127C158.364 41.4808 158.228 41.4557 158.077 41.4375C157.927 41.4193 157.785 41.4102 157.653 41.4102C157.353 41.4102 157.068 41.4717 156.799 41.5947C156.535 41.7132 156.302 41.8864 156.102 42.1143C155.901 42.3376 155.744 42.6087 155.63 42.9277C155.516 43.2422 155.459 43.5931 155.459 43.9805V48H154.317V40.5078H155.261L155.384 41.8887H155.432C155.587 41.6107 155.773 41.3577 155.992 41.1299C156.211 40.8975 156.464 40.7129 156.751 40.5762C157.043 40.4395 157.366 40.3711 157.722 40.3711Z" fill="#575757"/>
</g>
<path fill-rule="evenodd" clip-rule="evenodd" d="M35.5 55C50.6878 55 63 42.6878 63 27.5C63 12.3122 50.6878 0 35.5 0C20.3122 0 8 12.3122 8 27.5C8 42.6878 20.3122 55 35.5 55Z" fill="url(#paint0_linear_0_2259)" fill-opacity="0.7"/>
<path fill-rule="evenodd" clip-rule="evenodd" d="M49.4482 5.0236C49.1084 4.93587 48.7536 5.09864 48.5984 5.41347C48.5309 5.55187 46.8605 8.83623 39.5432 12.7003C39.3385 12.7897 39.1854 12.9671 39.1267 13.1826C38.6695 14.8949 38.0495 16.5596 37.2752 18.1539C36.8481 17.2284 36.5618 16.2443 36.4259 15.2341C36.3932 15.0071 36.257 14.8082 36.0572 14.6957C35.8573 14.5832 35.6166 14.5699 35.4056 14.6598C33.4715 15.4839 31.3664 16.2687 29.1487 16.9919C26.2081 17.9316 23.3709 19.1682 20.6808 20.6825C20.5251 20.7718 20.4073 20.9148 20.3495 21.0847C20.0159 22.0636 19.6556 22.9882 19.2685 23.8585C19.2845 23.5682 19.3059 23.2596 19.3327 22.9327C19.3563 22.648 19.2135 22.3751 18.9661 22.2322C18.7186 22.0893 18.4109 22.102 18.1761 22.2648C10.6744 27.4597 6.58668 34.7917 5.31706 45.3119C3.39498 47.3224 1.7066 49.544 0.284153 51.9342C-0.267402 52.8714 0.00670854 54.076 0.909469 54.6823C1.2308 54.8893 1.60486 54.9996 1.9871 55H35.7423C36.1501 55 36.4807 54.6694 36.4807 54.2616C36.4807 53.8538 36.1501 53.5232 35.7423 53.5232H4.01706C5.29917 51.4583 6.79933 49.537 8.49174 47.7925C15.7706 47.4355 32.6491 45.9655 39.2824 39.9681C39.7638 39.5324 40.2217 39.0714 40.6541 38.587C40.8305 38.3907 40.8887 38.1151 40.8067 37.8642C40.7247 37.6133 40.515 37.4253 40.2567 37.371C40.0984 37.3381 39.9419 37.3035 39.7862 37.2685C40.3111 37.1942 40.901 37.1238 41.5512 37.0655C41.7697 37.0454 41.9681 36.9296 42.093 36.7491C47.4849 28.9247 49.0368 22.8462 49.9989 5.77887C50.0183 5.4282 49.788 5.11237 49.4482 5.0236ZM1.55968 52.6781C6.15883 44.7878 14.6694 38.7917 23.6791 32.4445L23.7766 32.3758L23.7768 32.3757C25.638 31.0648 27.738 29.5856 29.752 28.1065C29.8428 28.0393 29.9526 28.0029 30.0655 28.0027C30.0938 28.0028 30.122 28.005 30.1499 28.0095C30.2879 28.0308 30.4114 28.1069 30.4926 28.2205C30.6632 28.4552 30.6132 28.7835 30.3803 28.9567C28.3217 30.4643 26.1778 31.9744 24.285 33.3069L24.2835 33.3079C15.3545 39.5986 6.92062 45.5406 2.43942 53.2616C2.36746 53.3858 2.24764 53.475 2.10803 53.5082C1.96841 53.5415 1.82126 53.5159 1.70103 53.4376C1.46431 53.2592 1.40297 52.9296 1.55968 52.6781ZM36.4436 36.4288C37.9594 36.0256 39.5079 35.7573 41.071 35.6272C45.8605 28.5884 47.4335 22.8327 48.3786 8.14003C47.0297 9.59487 44.6204 11.6607 40.466 13.8826C39.8785 16.0214 39.037 18.082 37.9592 20.0205C37.8403 20.2302 37.6266 20.3686 37.3867 20.3914C37.1467 20.4142 36.9108 20.3184 36.7546 20.1349C36.7052 20.0775 35.6689 18.8357 35.1331 16.375C33.3993 17.0855 31.5453 17.7632 29.6086 18.3961C26.8523 19.2776 24.189 20.4268 21.6567 21.8273C21.011 23.7235 20.1771 25.5504 19.1673 27.2804C19.004 27.5539 18.6837 27.692 18.3728 27.6228C18.0618 27.5535 17.8303 27.2927 17.7985 26.9757C17.7339 26.1162 17.7228 25.2535 17.7651 24.3926C11.8749 28.9268 8.43478 35.0845 7.06136 43.5317C11.5652 39.1735 17.0968 35.2757 22.8284 31.2377C22.9223 31.1715 23.0168 31.1049 23.1119 31.0378C24.9208 29.7622 26.9408 28.3377 28.8786 26.9163C29.3082 26.6001 29.8462 26.4684 30.3732 26.5505C30.9002 26.6325 31.3727 26.9216 31.6858 27.3534C32.331 28.2462 32.1374 29.4921 31.2516 30.147C29.1837 31.6639 27.036 33.1782 25.1373 34.5145C19.6297 38.3942 14.3145 42.1398 10.0479 46.2254C16.9782 45.7849 32.3795 44.217 38.2917 38.8714C38.4204 38.7567 38.5449 38.6394 38.6714 38.5183C37.8765 38.3149 37.1191 38.0845 36.4086 37.8314C36.1086 37.7238 35.9114 37.436 35.9193 37.1174C35.9273 36.7989 36.1386 36.5213 36.4436 36.4288Z" fill="black"/>
<path d="M45.4368 21.0128C45.258 20.9751 45.0737 21.0214 44.9244 21.1416C44.7751 21.2618 44.6733 21.446 44.6413 21.6535C44.4547 22.8573 44.2502 23.9554 44.021 25.0113C43.9285 25.4364 44.1502 25.8681 44.5165 25.9759C44.5716 25.9921 44.6283 26.0002 44.6851 26C44.9981 25.9997 45.2711 25.7531 45.348 25.401C45.5862 24.3121 45.7962 23.1777 45.989 21.9358C46.0561 21.504 45.8089 21.0908 45.4368 21.0128Z" fill="black"/>
<defs>
<linearGradient id="paint0_linear_0_2259" x1="8" y1="0" x2="8" y2="55" gradientUnits="userSpaceOnUse">
<stop stop-color="#FDC830"/>
<stop offset="1" stop-color="#F37335"/>
</linearGradient>
<clipPath id="clip0_0_2259">
<rect width="94" height="53" fill="white" transform="translate(68 1)"/>
</clipPath>
</defs>
</svg>
